<svg width="32" height="32" viewBox="0 0 32 32" fill="none" xmlns="http://www.w3.org/2000/svg">
<path d="M22.6543 18.6564V2.66504" stroke="currentColor" stroke-width="2.66523" stroke-linecap="round" stroke-linejoin="round"/>
<path d="M11.9934 24.1468L13.326 18.6564H5.55683C5.14307 18.6564 4.73499 18.5601 4.3649 18.375C3.99482 18.19 3.67291 17.9213 3.42465 17.5903C3.17639 17.2593 3.00861 16.875 2.93459 16.468C2.86058 16.0609 2.88236 15.6421 2.99821 15.2449L6.1032 4.584C6.26467 4.03039 6.60134 3.54409 7.06269 3.19808C7.52403 2.85208 8.08515 2.66504 8.66182 2.66504H26.6521C27.359 2.66504 28.0369 2.94584 28.5367 3.44567C29.0365 3.94549 29.3173 4.62341 29.3173 5.33027V15.9912C29.3173 16.698 29.0365 17.376 28.5367 17.8758C28.0369 18.3756 27.359 18.6564 26.6521 18.6564H22.9741C22.4783 18.6567 21.9923 18.7953 21.5709 19.0566C21.1495 19.3179 20.8094 19.6916 20.5887 20.1356L15.9912 29.3173C15.3628 29.3095 14.7442 29.1599 14.1818 28.8794C13.6193 28.599 13.1275 28.1951 12.7431 27.6979C12.3587 27.2007 12.0915 26.6231 11.9617 26.0082C11.8319 25.3933 11.8427 24.7569 11.9934 24.1468Z" stroke="currentColor" stroke-width="2.66523" stroke-linecap="round" stroke-linejoin="round"/>
</svg>
