<svg width="16" height="16" viewBox="0 0 16 16" fill="none" xmlns="http://www.w3.org/2000/svg">
<g clip-path="url(#clip0_541_15034)">
<path d="M14.5303 6.66535C14.8347 8.15918 14.6178 9.71221 13.9157 11.0655C13.2136 12.4187 12.0689 13.4904 10.6723 14.1017C9.27571 14.7131 7.71176 14.8272 6.24124 14.425C4.77071 14.0228 3.48251 13.1287 2.59145 11.8917C1.7004 10.6547 1.26034 9.14956 1.34468 7.62737C1.42903 6.10517 2.03266 4.6579 3.05492 3.5269C4.07718 2.3959 5.45628 1.64954 6.96224 1.41228C8.46819 1.17502 10.01 1.4612 11.3305 2.22311" stroke="#00C950" stroke-width="1.33301" stroke-linecap="round" stroke-linejoin="round"/>
<path d="M5.99854 7.33153L7.99804 9.33104L14.6631 2.66602" stroke="#00C950" stroke-width="1.33301" stroke-linecap="round" stroke-linejoin="round"/>
</g>
<defs>
<clipPath id="clip0_541_15034">
<rect width="15.9961" height="15.9961" fill="white"/>
</clipPath>
</defs>
</svg>
