<svg width="32" height="32" viewBox="0 0 32 32" fill="none" xmlns="http://www.w3.org/2000/svg">
<path d="M9.32812 13.3262V29.3175" stroke="currentColor" stroke-width="2.66523" stroke-linecap="round" stroke-linejoin="round"/>
<path d="M19.989 7.83558L18.6564 13.326H26.4256C26.8393 13.326 27.2474 13.4223 27.6175 13.6073C27.9876 13.7924 28.3095 14.061 28.5577 14.392C28.806 14.7231 28.9738 15.1073 29.0478 15.5144C29.1218 15.9215 29.1 16.3402 28.9842 16.7374L25.8792 27.3984C25.7177 27.952 25.381 28.4383 24.9197 28.7843C24.4584 29.1303 23.8972 29.3173 23.3206 29.3173H5.33027C4.62341 29.3173 3.94549 29.0365 3.44567 28.5367C2.94584 28.0369 2.66504 27.359 2.66504 26.6521V15.9912C2.66504 15.2843 2.94584 14.6064 3.44567 14.1066C3.94549 13.6068 4.62341 13.326 5.33027 13.326H9.00828C9.50413 13.3257 9.99007 13.1871 10.4115 12.9258C10.8329 12.6645 11.173 12.2908 11.3937 11.8468L15.9912 2.66504C16.6196 2.67282 17.2382 2.82251 17.8006 3.10293C18.3631 3.38335 18.8549 3.78724 19.2393 4.28444C19.6237 4.78163 19.8908 5.35927 20.0207 5.97419C20.1505 6.58911 20.1397 7.22543 19.989 7.83558Z" stroke="currentColor" stroke-width="2.66523" stroke-linecap="round" stroke-linejoin="round"/>
</svg>
