<svg width="20" height="20" viewBox="0 0 20 20" fill="none" xmlns="http://www.w3.org/2000/svg">
<path d="M12.4968 17.4952V10.8302C12.4968 10.6092 12.409 10.3973 12.2528 10.2411C12.0966 10.0848 11.8846 9.99707 11.6637 9.99707H8.33118C8.11022 9.99707 7.89831 10.0848 7.74206 10.2411C7.58582 10.3973 7.49805 10.6092 7.49805 10.8302V17.4952" stroke="currentColor" stroke-width="1.66626" stroke-linecap="round" stroke-linejoin="round"/>
<path d="M2.49951 8.33158C2.49945 8.0892 2.55228 7.84972 2.6543 7.62985C2.75632 7.40999 2.90508 7.21502 3.0902 7.05856L8.9221 2.06063C9.22285 1.80645 9.60389 1.66699 9.99767 1.66699C10.3914 1.66699 10.7725 1.80645 11.0732 2.06063L16.9051 7.05856C17.0903 7.21502 17.239 7.40999 17.341 7.62985C17.4431 7.84972 17.4959 8.0892 17.4958 8.33158V15.8297C17.4958 16.2717 17.3203 16.6955 17.0078 17.008C16.6953 17.3204 16.2715 17.496 15.8296 17.496H4.16577C3.72385 17.496 3.30003 17.3204 2.98755 17.008C2.67506 16.6955 2.49951 16.2717 2.49951 15.8297V8.33158Z" stroke="currentColor" stroke-width="1.66626" stroke-linecap="round" stroke-linejoin="round"/>
</svg>
