<svg width="16" height="16" viewBox="0 0 16 16" fill="none" xmlns="http://www.w3.org/2000/svg">
<g clip-path="url(#clip0_489_865)">
<path d="M3.99902 14.6631C5.10332 14.6631 5.99853 13.7679 5.99853 12.6636C5.99853 11.5593 5.10332 10.6641 3.99902 10.6641C2.89472 10.6641 1.99951 11.5593 1.99951 12.6636C1.99951 13.7679 2.89472 14.6631 3.99902 14.6631Z" stroke="#99A1AF" stroke-width="1.33301" stroke-linecap="round" stroke-linejoin="round"/>
<path d="M5.99853 12.6631H11.6638C12.2825 12.6631 12.8758 12.4173 13.3133 11.9798C13.7508 11.5423 13.9966 10.949 13.9966 10.3303C13.9966 9.71162 13.7508 9.11828 13.3133 8.6808C12.8758 8.24332 12.2825 7.99755 11.6638 7.99755H4.33227C3.71358 7.99755 3.12024 7.75178 2.68276 7.3143C2.24528 6.87682 1.99951 6.28348 1.99951 5.66479C1.99951 5.0461 2.24528 4.45276 2.68276 4.01528C3.12024 3.5778 3.71358 3.33203 4.33227 3.33203H9.99754" stroke="#99A1AF" stroke-width="1.33301" stroke-linecap="round" stroke-linejoin="round"/>
<path d="M11.9971 5.33202C13.1014 5.33202 13.9966 4.43681 13.9966 3.33252C13.9966 2.22822 13.1014 1.33301 11.9971 1.33301C10.8928 1.33301 9.99756 2.22822 9.99756 3.33252C9.99756 4.43681 10.8928 5.33202 11.9971 5.33202Z" stroke="#99A1AF" stroke-width="1.33301" stroke-linecap="round" stroke-linejoin="round"/>
</g>
<defs>
<clipPath id="clip0_489_865">
<rect width="15.9961" height="15.9961" fill="white"/>
</clipPath>
</defs>
</svg>
