<svg viewBox="0 0 20 20" fill="none" xmlns="http://www.w3.org/2000/svg">
  <path d="M1.66626 9.99756H4.16626" stroke="currentColor" stroke-width="1.66626" stroke-linecap="round" stroke-linejoin="round"/>
  <path d="M15.8293 9.99756H18.3293" stroke="currentColor" stroke-width="1.66626" stroke-linecap="round" stroke-linejoin="round"/>
  <path d="M9.99756 1.6665V4.1665" stroke="currentColor" stroke-width="1.66626" stroke-linecap="round" stroke-linejoin="round"/>
  <path d="M9.99756 15.8296V18.3296" stroke="currentColor" stroke-width="1.66626" stroke-linecap="round" stroke-linejoin="round"/>
  <path d="M9.99743 15.8293C13.2183 15.8293 15.8293 13.2183 15.8293 9.99743C15.8293 6.77656 13.2183 4.16553 9.99743 4.16553C6.77656 4.16553 4.16553 6.77656 4.16553 9.99743C4.16553 13.2183 6.77656 15.8293 9.99743 15.8293Z" stroke="currentColor" stroke-width="1.66626" stroke-linecap="round" stroke-linejoin="round"/>
  <path d="M9.99743 12.4968C11.3778 12.4968 12.4968 11.3778 12.4968 9.99743C12.4968 8.61706 11.3778 7.49805 9.99743 7.49805C8.61706 7.49805 7.49805 8.61706 7.49805 9.99743C7.49805 11.3778 8.61706 12.4968 9.99743 12.4968Z" stroke="currentColor" stroke-width="1.66626" stroke-linecap="round" stroke-linejoin="round"/>
</svg>